<svg width="33" height="34" viewBox="0 0 33 34" fill="none" xmlns="http://www.w3.org/2000/svg">
<path d="M29.4643 0.375H3.53571C2.59798 0.375 1.69866 0.750334 1.03559 1.41843C0.372512 2.08653 0 2.99267 0 3.9375L0 30.0625C0 31.0073 0.372512 31.9135 1.03559 32.5816C1.69866 33.2497 2.59798 33.625 3.53571 33.625H13.6456V22.3207H9.00502V17H13.6456V12.9447C13.6456 8.33199 16.3711 5.78406 20.5454 5.78406C22.5446 5.78406 24.6351 6.14328 24.6351 6.14328V10.6706H22.3317C20.0622 10.6706 19.3544 12.0897 19.3544 13.5451V17H24.4207L23.6105 22.3207H19.3544V33.625H29.4643C30.402 33.625 31.3013 33.2497 31.9644 32.5816C32.6275 31.9135 33 31.0073 33 30.0625V3.9375C33 2.99267 32.6275 2.08653 31.9644 1.41843C31.3013 0.750334 30.402 0.375 29.4643 0.375Z" fill="#0257A5"/>
</svg>
