<svg width="24" height="26" viewBox="0 0 24 26" fill="none" xmlns="http://www.w3.org/2000/svg">
<path d="M13.6374 5.67104V8.98272H12.8053V5.67104V5.17104H12.3053H9.01908V4.31168H12.3053H12.8053V3.81168V0.5H13.6374V3.81168V4.31168H14.1374H17.3931V5.17104H14.1374H13.6374V5.67104ZM5.53492 16.6386L5.53498 16.6387L5.53892 16.6314L7.40151 13.1916L7.52098 12.971L7.4155 12.7433L2.83535 2.85774L2.70108 2.56794H2.38168H0.5V1.70858H3.22167L8.27861 12.6977L8.41251 12.9887H8.73282H17.6489H17.9448L18.0872 12.7293L22.6104 4.48976L23.3222 4.87878L18.8891 13.0244L18.889 13.0244L18.8849 13.0322C18.7413 13.3075 18.5547 13.5038 18.3263 13.6384C18.0997 13.7719 17.8189 13.848 17.4656 13.848H8.30534H8.0124L7.86917 14.1036L5.97605 17.4814L5.55881 18.2259H6.41221H20.9962V19.0852H6.96183C6.27392 19.0852 5.8212 18.8199 5.51927 18.2856C5.21141 17.7408 5.21069 17.2145 5.53492 16.6386ZM6.96183 25.5C6.48463 25.5 6.09397 25.3365 5.76074 24.9983C5.42723 24.6598 5.26336 24.2598 5.26336 23.7688C5.26336 23.2777 5.42723 22.8777 5.76074 22.5392C6.09397 22.2011 6.48463 22.0375 6.96183 22.0375C7.43903 22.0375 7.8297 22.2011 8.16292 22.5392C8.49643 22.8777 8.6603 23.2777 8.6603 23.7688C8.6603 24.2598 8.49643 24.6598 8.16292 24.9983C7.8297 25.3365 7.43903 25.5 6.96183 25.5ZM19.2977 25.5C18.8205 25.5 18.4298 25.3365 18.0966 24.9983C17.7631 24.6598 17.5992 24.2598 17.5992 23.7688C17.5992 23.2777 17.7631 22.8777 18.0966 22.5392C18.4298 22.2011 18.8205 22.0375 19.2977 22.0375C19.7749 22.0375 20.1656 22.2011 20.4988 22.5392C20.8323 22.8777 20.9962 23.2777 20.9962 23.7688C20.9962 24.2598 20.8323 24.6598 20.4988 24.9983C20.1656 25.3365 19.7749 25.5 19.2977 25.5Z" fill="#D2D8D8" stroke="#D2D8D8"/>
</svg>
