<svg width="27" height="27" viewBox="0 0 27 27" fill="none" xmlns="http://www.w3.org/2000/svg">
<path d="M7.68539 27C7.01124 27 6.4382 26.7638 5.96629 26.2913C5.49438 25.8188 5.25843 25.245 5.25843 24.57C5.25843 23.895 5.49438 23.3212 5.96629 22.8487C6.4382 22.3762 7.01124 22.14 7.68539 22.14C8.35955 22.14 8.93258 22.3762 9.40449 22.8487C9.8764 23.3212 10.1124 23.895 10.1124 24.57C10.1124 25.245 9.8764 25.8188 9.40449 26.2913C8.93258 26.7638 8.35955 27 7.68539 27ZM21.3034 27C20.6292 27 20.0562 26.7638 19.5843 26.2913C19.1124 25.8188 18.8764 25.245 18.8764 24.57C18.8764 23.895 19.1124 23.3212 19.5843 22.8487C20.0562 22.3762 20.6292 22.14 21.3034 22.14C21.9775 22.14 22.5506 22.3762 23.0225 22.8487C23.4944 23.3212 23.7303 23.895 23.7303 24.57C23.7303 25.245 23.4944 25.8188 23.0225 26.2913C22.5506 26.7638 21.9775 27 21.3034 27ZM14.0899 10.3275L12.6742 8.91L15.1685 6.4125H9.03371V4.3875H15.1685L12.6742 1.89L14.0899 0.4725L19.0112 5.4L14.0899 10.3275ZM0 2.025V0H3.91011L9.64045 12.285H19.3483L24.7416 2.835H27L21.5393 13.0613C21.3146 13.4438 21 13.7756 20.5955 14.0569C20.191 14.3381 19.7528 14.4788 19.2809 14.4788H9.06741L7.17977 17.9888H23.7303V20.0138H7.48315C6.53933 20.0138 5.85955 19.6988 5.44382 19.0688C5.02809 18.4388 5.03371 17.73 5.46067 16.9425L7.61798 12.96L2.62921 2.025H0Z" fill="#D2D8D8"/>
</svg>
