<svg width="31" height="32" viewBox="0 0 31 32" fill="none" xmlns="http://www.w3.org/2000/svg">
<path d="M20.3653 15.9947H30.5V31.5H0.5V9.00526H10.6347H11.1347V8.50526V4.84593L15.5 0.690333L19.8653 4.84593V15.4947V15.9947H20.3653ZM2.08333 29.4737V29.9737H2.58333H7.14722H7.64722V29.4737V25.0105V24.5105H7.14722H2.58333H2.08333V25.0105V29.4737ZM2.08333 22.4842V22.9842H2.58333H7.14722H7.64722V22.4842V18.0211V17.5211H7.14722H2.58333H2.08333V18.0211V22.4842ZM2.08333 15.4947V15.9947H2.58333H7.14722H7.64722V15.4947V11.0316V10.5316H7.14722H2.58333H2.08333V11.0316V15.4947ZM12.7181 29.4737V29.9737H13.2181H17.7819H18.2819V29.4737V25.0105V24.5105H17.7819H13.2181H12.7181V25.0105V29.4737ZM12.7181 22.4842V22.9842H13.2181H17.7819H18.2819V22.4842V18.0211V17.5211H17.7819H13.2181H12.7181V18.0211V22.4842ZM12.7181 15.4947V15.9947H13.2181H17.7819H18.2819V15.4947V11.0316V10.5316H17.7819H13.2181H12.7181V11.0316V15.4947ZM12.7181 8.50526V9.00526H13.2181H17.7819H18.2819V8.50526V4.04211V3.54211H17.7819H13.2181H12.7181V4.04211V8.50526ZM23.3528 29.4737V29.9737H23.8528H28.4167H28.9167V29.4737V25.0105V24.5105H28.4167H23.8528H23.3528V25.0105V29.4737ZM23.3528 22.4842V22.9842H23.8528H28.4167H28.9167V22.4842V18.0211V17.5211H28.4167H23.8528H23.3528V18.0211V22.4842Z" fill="#D2D8D8" stroke="#D2D8D8"/>
</svg>
