<svg width="29" height="28" viewBox="0 0 29 28" fill="none" xmlns="http://www.w3.org/2000/svg">
<path d="M18.0456 15.75V26.25C18.0456 26.7458 17.8757 27.1615 17.5359 27.4969C17.1961 27.8323 16.7751 28 16.2728 28H12.7272C12.2249 28 11.8039 27.8323 11.4641 27.4969C11.1243 27.1615 10.9544 26.7458 10.9544 26.25V15.75L0.361946 2.40625C-0.0517064 1.91042 -0.1108 1.38542 0.184666 0.83125C0.480132 0.277083 0.938105 0 1.55858 0H27.4414C28.0619 0 28.5199 0.277083 28.8153 0.83125C29.1108 1.38542 29.0517 1.91042 28.6381 2.40625L18.0456 15.75ZM14.5 15.925L25.1368 2.625H3.86322L14.5 15.925Z" fill="#D2D8D8"/>
</svg>
