<svg width="32" height="32" viewBox="0 0 32 32" fill="none" xmlns="http://www.w3.org/2000/svg">
<path d="M22.4151 16.2641H21.0943L18.8679 14H22.0755L26.8302 5.39623H10.1887L7.92453 3.13208H27.8868C28.5409 3.13208 29.0189 3.40252 29.3208 3.9434C29.6226 4.48428 29.5975 5.06918 29.2453 5.69811L23.9245 15.3585C23.7736 15.6352 23.5849 15.8553 23.3585 16.0189C23.1321 16.1824 22.8176 16.2641 22.4151 16.2641ZM9.09434 30.2642C8.33962 30.2642 7.69811 30 7.16981 29.4717C6.64151 28.9434 6.37736 28.3019 6.37736 27.5472C6.37736 26.7925 6.64151 26.1509 7.16981 25.6226C7.69811 25.0943 8.33962 24.8302 9.09434 24.8302C9.84906 24.8302 10.4906 25.0943 11.0189 25.6226C11.5472 26.1509 11.8113 26.7925 11.8113 27.5472C11.8113 28.3019 11.5472 28.9434 11.0189 29.4717C10.4906 30 9.84906 30.2642 9.09434 30.2642ZM30.3774 32L20.717 22.4151H8.71698C7.76101 22.4151 7.0566 22.0692 6.60377 21.3774C6.15094 20.6855 6.16352 19.9371 6.64151 19.1321L9.28302 14.717L6.03774 7.66038L0 1.62264L1.62264 0L32 30.3774L30.3774 32ZM18.4528 20.1509L14.6415 16.2264H11.0566L8.67924 20.1509H18.4528ZM24.2264 30.2642C23.4969 30.2642 22.8616 30 22.3208 29.4717C21.7799 28.9434 21.5094 28.3019 21.5094 27.5472C21.5094 26.7925 21.7799 26.1509 22.3208 25.6226C22.8616 25.0943 23.4969 24.8302 24.2264 24.8302C24.956 24.8302 25.5912 25.0943 26.1321 25.6226C26.673 26.1509 26.9434 26.7925 26.9434 27.5472C26.9434 28.3019 26.673 28.9434 26.1321 29.4717C25.5912 30 24.956 30.2642 24.2264 30.2642Z" fill="#D2D8D8"/>
</svg>
