<svg width="54" height="62" viewBox="0 0 54 62" fill="none" xmlns="http://www.w3.org/2000/svg">
<g clip-path="url(#clip0_703_2)">
<path d="M42.4286 19.375V15.5C42.4286 6.9532 35.5073 0 27 0C18.4926 0 11.5714 6.9532 11.5714 15.5V19.375H0V52.3125C0 57.6628 4.31723 62 9.64286 62H44.3571C49.6828 62 54 57.6628 54 52.3125V19.375H42.4286ZM19.2857 15.5C19.2857 11.2266 22.7463 7.75 27 7.75C31.2537 7.75 34.7143 11.2266 34.7143 15.5V19.375H19.2857V15.5ZM38.5714 30.0312C36.9737 30.0312 35.6786 28.7301 35.6786 27.125C35.6786 25.5199 36.9737 24.2188 38.5714 24.2188C40.1691 24.2188 41.4643 25.5199 41.4643 27.125C41.4643 28.7301 40.1691 30.0312 38.5714 30.0312ZM15.4286 30.0312C13.8309 30.0312 12.5357 28.7301 12.5357 27.125C12.5357 25.5199 13.8309 24.2188 15.4286 24.2188C17.0263 24.2188 18.3214 25.5199 18.3214 27.125C18.3214 28.7301 17.0263 30.0312 15.4286 30.0312Z" fill="#D2D8D8"/>
</g>
<defs>
<clipPath id="clip0_703_2">
<rect width="54" height="62" fill="white"/>
</clipPath>
</defs>
</svg>
