<svg width="20" height="20" viewBox="0 0 20 20" fill="none" xmlns="http://www.w3.org/2000/svg">
<path d="M10 0C12.7625 0 15 2.2375 15 5C15 7.7625 12.7625 10 10 10C7.2375 10 5 7.7625 5 5C5 2.2375 7.2375 0 10 0ZM10 2.5C8.625 2.5 7.5 3.625 7.5 5C7.5 6.375 8.625 7.5 10 7.5C11.375 7.5 12.5 6.375 12.5 5C12.5 3.625 11.375 2.5 10 2.5ZM10 11.25C13.3375 11.25 20 12.9125 20 16.25V20H0V16.25C0 12.9125 6.6625 11.25 10 11.25ZM10 13.625C6.2875 13.625 2.375 15.45 2.375 16.25V17.625H17.625V16.25C17.625 15.45 13.7125 13.625 10 13.625Z" fill="#D2D8D8"/>
</svg>
