<?xml version="1.0" standalone="no"?>
<!DOCTYPE svg PUBLIC "-//W3C//DTD SVG 20010904//EN"
 "http://www.w3.org/TR/2001/REC-SVG-20010904/DTD/svg10.dtd">
<svg version="1.0" xmlns="http://www.w3.org/2000/svg"
 width="512.000000pt" height="512.000000pt" viewBox="0 0 512.000000 512.000000"
 preserveAspectRatio="xMidYMid meet">
<metadata>
Created by potrace 1.14, written by Peter Selinger 2001-2017
</metadata>
<g transform="translate(0.000000,512.000000) scale(0.100000,-0.100000)"
fill="#000000" stroke="none">
<path d="M1509 4706 c-2 -2 -29 -7 -60 -10 -74 -9 -77 -9 -200 -42 -454 -119
-825 -428 -1029 -856 -43 -91 -95 -232 -106 -292 -2 -12 -6 -32 -9 -46 -4 -14
-8 -36 -11 -50 -28 -133 -26 -433 4 -575 106 -495 425 -896 885 -1115 163 -78
365 -135 542 -155 63 -7 1850 -7 1888 0 88 17 193 85 250 162 52 72 79 146 82
232 7 188 -102 348 -283 414 -56 20 -75 20 -962 22 -778 2 -940 5 -1005 19
-132 30 -257 100 -358 200 -201 200 -269 479 -180 746 78 239 278 419 537 485
l91 24 1368 1 c898 0 1384 4 1414 10 127 29 240 120 296 237 30 63 32 75 32
173 0 97 -2 110 -31 170 -56 115 -130 183 -249 226 l-66 24 -1418 0 c-780 0
-1420 -2 -1422 -4z"/>
<path d="M1617 3521 c-107 -35 -198 -114 -247 -216 -26 -54 -31 -74 -44 -155
-7 -44 14 -143 43 -206 48 -102 145 -184 266 -225 32 -10 223 -13 960 -14 506
-1 940 -5 965 -9 277 -45 507 -240 597 -504 35 -105 43 -266 18 -378 -57 -258
-263 -475 -520 -549 -29 -9 -63 -19 -76 -23 -13 -3 -645 -8 -1404 -9 -879 -2
-1398 -7 -1428 -13 -127 -26 -239 -115 -298 -235 -32 -66 -34 -75 -34 -175 0
-102 1 -109 37 -181 20 -40 54 -91 75 -111 56 -54 144 -103 210 -117 44 -9
396 -11 1468 -9 776 2 1421 7 1435 11 14 4 41 9 60 12 51 6 183 42 270 72 84
29 263 113 268 125 2 4 8 8 13 8 29 0 237 159 329 251 243 244 390 532 444
874 15 90 15 379 1 455 -97 530 -400 942 -863 1174 -131 66 -301 124 -416 142
-21 3 -48 8 -60 12 -11 3 -469 7 -1016 9 -950 2 -998 1 -1053 -16z"/>
</g>
</svg>
